[2026-03-03T20:04:56.718Z] Pipeline started.
[2026-03-03T20:04:57.533Z] Downloading YouTube: https://youtube.com/shorts/-grO33ayfNc?si=iwdZpY4jfFGIqfJJ
[2026-03-03T20:05:14.797Z] ElevenLabs TTS seg 0 [21m00Tcm4TlvDq8ikWAM]: "Facebook ilk inşa ettiğim şey değildi."
[2026-03-03T20:05:16.308Z] Seg 0 done (38914 bytes) ✅
[2026-03-03T20:05:16.562Z] ElevenLabs TTS seg 1 [21m00Tcm4TlvDq8ikWAM]: "Ayrıca sohbet sistemleri ve oyunlar, çalışma araçl"
[2026-03-03T20:05:18.249Z] Seg 1 done (104533 bytes) ✅
[2026-03-03T20:05:18.564Z] ElevenLabs TTS seg 2 [21m00Tcm4TlvDq8ikWAM]: "J.K. Rowling, sonunda Harry Potter'ı yazıp yayınla"
[2026-03-03T20:05:19.990Z] Seg 2 done (78202 bytes) ✅
[2026-03-03T20:05:20.252Z] ElevenLabs TTS seg 3 [21m00Tcm4TlvDq8ikWAM]: "Hatta Beyonce, Halo'yu elde etmek için yüzlerce şa"
[2026-03-03T20:05:21.642Z] Seg 3 done (76112 bytes) ✅
[2026-03-03T20:05:21.917Z] ElevenLabs TTS seg 4 [21m00Tcm4TlvDq8ikWAM]: "En büyük başarılar, başarısız olma özgürlüğüne sah"
[2026-03-03T20:05:23.353Z] Seg 4 done (69425 bytes) ✅
[2026-03-03T20:05:23.616Z] Running FFmpeg: C:\Users\fullm\Downloads\dubverse-saas\backend\node_modules\ffmpeg-static\ffmpeg.exe -i C:\Users\fullm\Downloads\dubverse-saas\tmp\uploads\3214f6f0-9f1b-4dc9-85a7-d0582cb8a752\audio.mp3 -i C:\Users\fullm\Downloads\dubverse-saas\tmp\uploads\3214f6f0-9f1b-4dc9-85a7-d0582cb8a752\segments\seg_0.mp3 -i C:\Users\fullm\Downloads\dubverse-saas\tmp\uploads\3214f6f0-9f1b-4dc9-85a7-d0582cb8a752\segments\seg_1.mp3 -i C:\Users\fullm\Downloads\dubverse-saas\tmp\uploads\3214f6f0-9f1b-4dc9-85a7-d0582cb8a752\segments\seg_2.mp3 -i C:\Users\fullm\Downloads\dubverse-saas\tmp\uploads\3214f6f0-9f1b-4dc9-85a7-d0582cb8a752\segments\seg_3.mp3 -i C:\Users\fullm\Downloads\dubverse-saas\tmp\uploads\3214f6f0-9f1b-4dc9-85a7-d0582cb8a752\segments\seg_4.mp3 -filter_complex [1:a]aformat=sample_rates=44100:channel_layouts=stereo,adelay=0|0[s0];[2:a]aformat=sample_rates=44100:channel_layouts=stereo,adelay=2500|2500[s1];[3:a]aformat=sample_rates=44100:channel_layouts=stereo,adelay=8340|8340[s2];[4:a]aformat=sample_rates=44100:channel_layouts=stereo,adelay=14880|14880[s3];[5:a]aformat=sample_rates=44100:channel_layouts=stereo,adelay=20340|20340[s4];[0:a]aformat=sample_rates=44100:channel_layouts=stereo,volume=0.12[bg];[bg][s0][s1][s2][s3][s4]amix=inputs=6:duration=first:dropout_transition=2,volume=6[mixed];[mixed]loudnorm=I=-23:TP=-1.5:LRA=11[out] -map [out] -acodec libmp3lame -ar 44100 -b:a 192k -y C:\Users\fullm\Downloads\dubverse-saas\tmp\uploads\3214f6f0-9f1b-4dc9-85a7-d0582cb8a752\dubbed_audio.mp3
[2026-03-03T20:05:23.841Z] FFmpeg Err: Input #0, mp3, from 'C:\Users\fullm\Downloads\dubverse-saas\tmp\uploads\3214f6f0-9f1b-4dc9-85a7-d0582cb8a752\audio.mp3':
  Metadata:
    major_brand     : mp42
    minor_version   : 0
    compatible_brands: isommp42
    encoder         : Lavf60.16.100
  Duration: 00:00:25.73, start: 0.025057, bitrate: 128 kb/s

[2026-03-03T20:05:23.846Z] FFmpeg Err:   Stream #0:0: Audio: mp3, 44100 Hz, stereo, fltp, 128 kb/s
    Metadata:
      encoder         : Lavc60.31
Input #1, mp3, from 'C:\Users\fullm\Downloads\dubverse-saas\tmp\uploads\3214f6f0-9f1b-4dc9-85a7-d0582cb8a752\segments\seg_0.mp3':
  Metadata:
    encoder         : Lavf60.16.100
  Duration: 00:00:02.40, start: 0.025057, bitrate: 64 kb/s
  Stream #1:0: Audio: mp3, 44100 Hz, mono, fltp, 64 kb/s
Input #2, mp3, from 'C:\Users\fullm\Downloads\dubverse-saas\tmp\uploads\3214f6f0-9f1b-4dc9-85a7-d0582cb8a752\segments\seg_1.mp3':
  Metadata:
    encoder         : Lavf60.16.100
  Duration: 00:00:06.50, start: 0.025057, bitrate: 64 kb/s
  Stream #2:0: Audio: mp3, 44100 Hz, mono, fltp, 64 kb/s
Input #3, mp3, from 'C:\Users\fullm\Downloads\dubverse-saas\tmp\uploads\3214f6f0-9f1b-4dc9-85a7-d0582cb8a752\segments\seg_2.mp3':
  Metadata:
    encoder         : Lavf60.16.100
  Duration: 00:00:04.86, start: 0.025057, bitrate: 64 kb/s
  Stream #3:0: Audio: mp3, 44100 Hz, mono, fltp, 64 kb/s
Input #4, mp3, from 'C:\Users\fullm\Downloads\dubverse-saas\tmp\uploads\3214f6f0-9f1b-4dc9-85a7-d0582cb8a752\segments\seg_3.mp3':
  Metadata:
    encoder         : Lavf60.16.100
  Duration: 00:00:04.73, start: 0.025057, bitrate: 64 kb/s
  Stream #4:0: Audio: mp3, 44100 Hz, mono, fltp, 64 kb/s

[2026-03-03T20:05:23.855Z] FFmpeg Err: Input #5, mp3, from 'C:\Users\fullm\Downloads\dubverse-saas\tmp\uploads\3214f6f0-9f1b-4dc9-85a7-d0582cb8a752\segments\seg_4.mp3':
  Metadata:
    encoder         : Lavf60.16.100
  Duration: 00:00:04.31, start: 0.025057, bitrate: 64 kb/s
  Stream #5:0: Audio: mp3, 44100 Hz, mono, fltp, 64 kb/s

[2026-03-03T20:05:23.863Z] FFmpeg Err: Stream mapping:
  Stream #0:0 (mp3float) -> aformat:default
  Stream #1:0 (mp3float) -> aformat:default
  Stream #2:0 (mp3float) -> aformat:default
  Stream #3:0 (mp3float) -> aformat:default
  Stream #4:0 (mp3float) -> aformat:default
  Stream #5:0 (mp3float) -> aformat:default
  loudnorm:default -> Stream #0:0 (libmp3lame)

[2026-03-03T20:05:24.051Z] FFmpeg Err: Output #0, mp3, to 'C:\Users\fullm\Downloads\dubverse-saas\tmp\uploads\3214f6f0-9f1b-4dc9-85a7-d0582cb8a752\dubbed_audio.mp3':
  Metadata:
    major_brand     : mp42
    minor_version   : 0
    compatible_brands: isommp42
    TSSE            : Lavf60.16.100
  Stream #0:0: Audio: mp3, 44100 Hz, stereo, fltp, 192 kb/s
    Metadata:
      encoder         : Lavc60.31.102 libmp3lame

[2026-03-03T20:05:24.053Z] FFmpeg Err: size=       0kB time=-00:00:00.02 bitrate=  -0.0kbits/s speed=N/A    
[2026-03-03T20:05:24.528Z] FFmpeg Err: size=     139kB time=00:00:05.87 bitrate= 193.9kbits/s speed= 8.8x    
[2026-03-03T20:05:25.033Z] FFmpeg Err: size=     256kB time=00:00:11.67 bitrate= 179.6kbits/s speed=9.95x    
[2026-03-03T20:05:25.536Z] FFmpeg Err: size=     256kB time=00:00:18.07 bitrate= 116.0kbits/s speed=10.8x    
[2026-03-03T20:05:26.014Z] FFmpeg Err: [out#0/mp3 @ 0000021be2fc5800] video:0kB audio:603kB subtitle:0kB other streams:0kB global headers:0kB muxing overhead: 0.123718%
size=     604kB time=00:00:25.69 bitrate= 192.5kbits/s speed=11.9x    

[2026-03-03T20:05:28.083Z] Running FFmpeg: C:\Users\fullm\Downloads\dubverse-saas\backend\node_modules\ffmpeg-static\ffmpeg.exe -i C:\Users\fullm\Downloads\dubverse-saas\tmp\uploads\3214f6f0-9f1b-4dc9-85a7-d0582cb8a752\video.mp4 -i C:\Users\fullm\Downloads\dubverse-saas\tmp\uploads\3214f6f0-9f1b-4dc9-85a7-d0582cb8a752\dubbed_audio.mp3 -map 0:v:0 -map 1:a:0 -c:v copy -c:a aac -b:a 192k -shortest -y C:\Users\fullm\Downloads\dubverse-saas\tmp\uploads\3214f6f0-9f1b-4dc9-85a7-d0582cb8a752\final_dubbed.mp4
[2026-03-03T20:05:28.247Z] FFmpeg Err: Input #0, mov,mp4,m4a,3gp,3g2,mj2, from 'C:\Users\fullm\Downloads\dubverse-saas\tmp\uploads\3214f6f0-9f1b-4dc9-85a7-d0582cb8a752\video.mp4':
  Metadata:
    major_brand     : mp42
    minor_version   : 0
    compatible_brands: isommp42
    creation_time   : 2023-10-04T09:42:15.000000Z
  Duration: 00:00:25.68, start: 0.000000, bitrate: 365 kb/s
  Stream #0:0[0x1](und): Video: h264 (Main) (avc1 / 0x31637661), yuv420p(tv, bt709, progressive), 360x640 [SAR 1:1 DAR 9:16], 233 kb/s, 25 fps, 25 tbr, 12800 tbn (default)
    Metadata:
      creation_time   : 2023-10-04T09:42:15.000000Z
      handler_name    : ISO Media file produced by Google Inc. Created on: 10/04/2023.
      vendor_id       : [0][0][0][0]
  Stream #0:1[0x2](eng): Audio: aac (LC) (mp4a / 0x6134706D), 44100 Hz, stereo, fltp, 128 kb/s (default)
    Metadata:
      creation_time   : 2023-10-04T09:42:15.000000Z
      handler_name    : ISO Media file produced by Google Inc. Created on: 10/04/2023.
      vendor_id       : [0][0][0][0]

[2026-03-03T20:05:28.254Z] FFmpeg Err: Input #1, mp3, from 'C:\Users\fullm\Downloads\dubverse-saas\tmp\uploads\3214f6f0-9f1b-4dc9-85a7-d0582cb8a752\dubbed_audio.mp3':
  Metadata:
    major_brand     : mp42
    minor_version   : 0
    compatible_brands: isommp42
    encoder         : Lavf60.16.100
  Duration: 00:00:25.73, start: 0.025057, bitrate: 192 kb/s
  Stream #1:0: Audio: mp3, 44100 Hz, stereo, fltp, 192 kb/s
    Metadata:
      encoder         : Lavc60.31
Stream mapping:
  Stream #0:0 -> #0:0 (copy)
  Stream #1:0 -> #0:1 (mp3 (mp3float) -> aac (native))

[2026-03-03T20:05:28.287Z] FFmpeg Err: Output #0, mp4, to 'C:\Users\fullm\Downloads\dubverse-saas\tmp\uploads\3214f6f0-9f1b-4dc9-85a7-d0582cb8a752\final_dubbed.mp4':
  Metadata:
    major_brand     : mp42
    minor_version   : 0
    compatible_brands: isommp42
    encoder         : Lavf60.16.100
  Stream #0:0
[2026-03-03T20:05:28.305Z] FFmpeg Err: (und): Video: h264 (Main) (avc1 / 0x31637661), yuv420p(tv, bt709, progressive), 360x640 [SAR 1:1 DAR 9:16], q=2-31, 233 kb/s, 25 fps, 25 tbr, 12800 tbn (default)
    Metadata:
      creation_time   : 2023-10-04T09:42:15.000000Z
      handler_name    : ISO Media file produced by Google Inc. Created on: 10/04/2023.
      vendor_id       : [0][0][0][0]
  Stream #0:1: Audio: aac (LC) (mp4a / 0x6134706D), 44100 Hz, stereo, fltp, 192 kb/s
    Metadata:
      encoder         : Lavc60.31.102 aac
size=       0kB time=N/A bitrate=N/A speed=N/A    
[2026-03-03T20:05:28.752Z] FFmpeg Err: size=     256kB time=00:00:05.64 bitrate= 371.9kbits/s speed=11.2x    
[2026-03-03T20:05:29.257Z] FFmpeg Err: size=     512kB time=00:00:12.84 bitrate= 326.7kbits/s speed=12.8x    
[2026-03-03T20:05:29.757Z] FFmpeg Err: size=    1024kB time=00:00:21.52 bitrate= 389.8kbits/s speed=14.3x    
[2026-03-03T20:05:30.167Z] FFmpeg Err: [out#0/mp4 @ 00000226d8647340] video:733kB audio:613kB subtitle:0kB other streams:0kB global headers:0kB muxing overhead: 1.586322%
size=    1367kB time=00:00:25.65 bitrate= 436.5kbits/s speed=13.4x    

[2026-03-03T20:05:30.171Z] FFmpeg Err: [aac @ 00000226d863e540] Qavg: 802.925

[2026-03-03T20:05:32.261Z] ✅ Pipeline finished successfully!
